<svg id="Layer_1" enable-background="new 0 0 512 512" height="512" viewBox="0 0 512 512" width="512" xmlns="http://www.w3.org/2000/svg"><path d="m163.299 422h165.601v30h-165.601z" fill="#766e6e"/><g fill="#5b5555"><path d="m226 422h102.9v30h-102.9z"/><path d="m481 195c0 24.814-20.186 45-45 45h-40.269v-30h40.269c8.276 0 15-6.724 15-15v-15h-45v-15c0-8.284 6.716-15 15-15h60z"/><path d="m131.884 412.669-27.862-11.133 30.967-79.402 27.862 11.133z"/></g><path d="m331.571 501.116-47.226-167.307 28.857-8.233 47.227 167.308z" fill="#463f3f"/><path d="m391 0h60v30h-60z" fill="#ffda2d"/><path d="m361 0v30h-60c-16.5 0-30 13.5-30 30 0 27.9-19.2 51.299-45 57.9-4.799 1.5-9.901 2.1-15 2.1h-30c-28.5 0-53.101 20.099-58.801 47.999l-29.399-6c8.401-41.699 45.601-71.999 88.2-71.999h30c5.4 0 10.499-1.5 15-4.2 9-5.099 15-14.7 15-25.8 0-33.001 27.001-60 60-60z" fill="#fff261"/><path d="m361 0v30h-60c-16.5 0-30 13.5-30 30 0 27.9-19.2 51.299-45 57.9v-32.1c9-5.099 15-14.7 15-25.8 0-33.001 27.001-60 60-60z" fill="#ffda2d"/><path d="m271 180v-30c16.538 0 30-13.462 30-30 0-33.091 26.909-60 60-60h60v30h-60c-16.538 0-30 13.462-30 30 0 33.091-26.909 60-60 60z" fill="#ffda2d"/><path d="m121 392c-32.999 0-60 26.999-60 60 0 32.999 27.001 60 60 60s60-27.001 60-60c0-33.001-27.001-60-60-60z" fill="#766e6e"/><path d="m181 452c0 32.999-27.001 60-60 60v-120c32.999 0 60 26.999 60 60z" fill="#5b5555"/><path d="m151 452c0 16.5-13.5 30-30 30s-30-13.5-30-30 13.5-30 30-30 30 13.5 30 30z" fill="#fff7cc"/><path d="m151 452c0 16.5-13.5 30-30 30v-60c16.5 0 30 13.5 30 30z" fill="#ffe6b3"/><path d="m421 150v15c0 21-3.3 41.1-9.6 60l-185.4 30-185.4-30c-6.3-18.9-9.6-39-9.6-60v-15z" fill="#ff9100"/><path d="m421 150v15c0 21-3.3 41.1-9.6 60l-185.4 30v-105z" fill="#ff641a"/><path d="m411.4 225c-25.199 78.3-98.7 135-185.4 135s-160.201-56.7-185.4-135z" fill="#766e6e"/><path d="m411.4 225c-25.199 78.3-98.7 135-185.4 135v-135z" fill="#5b5555"/></svg>