<svg id="Capa_1" enable-background="new 0 0 512 512" height="512" viewBox="0 0 512 512" width="512" xmlns="http://www.w3.org/2000/svg"><g clip-rule="evenodd" fill-rule="evenodd"><path d="m1.616 442.588v34.13c0 7.305 5.972 13.282 13.271 13.282h35.457c7.299 0 13.271-5.977 13.271-13.282v-34.13l-30.999-18.385z" fill="#9b8e99"/><path d="m359.47 401.673h115.025c5.251 0 9.578 4.302 9.578 9.586v16.487c0 5.284-4.327 9.586-9.578 9.586h-115.025c-5.251 0-9.578-4.302-9.578-9.586v-16.487c0-5.284 4.328-9.586 9.578-9.586z" fill="#00c0fa"/><path d="m456.81 411.259v16.487c0 5.284-4.327 9.586-9.607 9.586h27.292c5.251 0 9.578-4.302 9.578-9.586v-16.487c0-5.284-4.327-9.586-9.578-9.586h-27.292c5.28 0 9.607 4.302 9.607 9.586z" fill="#08a9f1"/><path d="m430.932 401.673v-186.213c-5.28.895-10.703 1.357-16.271 1.357-5.539 0-10.963-.462-16.271-1.357v186.213z" fill="#f0eef0"/><path d="m430.932 215.46c46.015-7.767 81.068-47.816 81.068-96.066 0-53.793-43.563-97.394-97.34-97.394-53.747 0-97.311 43.601-97.311 97.394 0 48.249 35.053 88.299 81.04 96.066 5.308.895 10.732 1.357 16.271 1.357 5.568 0 10.992-.462 16.272-1.357z" fill="#00c0fa"/><path d="m437.394 97.478c0-4.36-1.443-8.085-4.299-11.146s-6.405-4.591-10.674-4.591h-16.214v31.011h16.069c4.039 0 7.559-1.501 10.588-4.504 3.001-3.031 4.53-6.612 4.53-10.77z" fill="#00c0fa"/><path d="m512 119.394c0-53.793-43.563-97.394-97.34-97.394-3.116 0-6.203.144-9.261.433 44.833 8.72 78.674 48.192 78.674 95.604 0 37.884-21.609 70.685-53.142 86.826-8.626 4.418-18.031 7.565-27.927 9.24-1.529.26-3.058.462-4.616.664-.779.087-1.587.173-2.395.26.808.144 1.616.289 2.395.433 5.308.895 10.732 1.357 16.271 1.357 5.568 0 10.992-.462 16.271-1.357 46.017-7.767 81.07-47.816 81.07-96.066z" fill="#08a9f1"/><path d="m0 242.227v21.078c0 3.292 2.798 5.111 5.972 5.977l34.101 9.471 18.118-16.141-3.52-26.334h-48.699c-3.289.001-5.972 2.686-5.972 5.949z" fill="#ececec"/><path d="m306.415 236.25-1.789 25.208 16.387 17.296 34.129-9.471c3.173-.866 5.972-2.685 5.972-5.977v-21.078c0-3.263-2.683-5.948-5.972-5.948z" fill="#ececec"/><path d="m10.703 308.696c-10.703 13.571-9.145 24.861-9.145 41.406l.058 51.57 178.927 20.443 178.927-20.443.087-51.57c0-16.545 1.558-27.835-9.145-41.406l-29.398-29.943-14.598-42.503-13.416-39.068c-2.568-7.45-13.098-16.834-27.725-16.834h-84.732-84.703c-14.627 0-25.157 9.384-27.725 16.834l-13.444 39.096-14.598 42.475z" fill="#fd8087"/><path d="m99.071 221.899-18.031 54.602c-1.039 3.118 2.51 6.035 5.597 6.035h93.907 93.907c3.087 0 6.664-2.916 5.626-6.035l-18.06-54.602c-1.039-3.118-2.51-6.035-5.597-6.035h-75.875-75.847c-3.088 0-4.589 2.917-5.627 6.035z" fill="#99e6fc"/><path d="m39.178 340.516c0-4.822 3.952-8.778 8.77-8.778h44.746c4.818 0 8.77 3.956 8.77 8.778v16.401c0 4.851-3.952 8.807-8.77 8.807h-44.745c-4.818 0-8.77-3.956-8.77-8.807v-16.401z" fill="#fef0ae"/><path d="m146.038 366.272v35.4h34.505 34.533v-35.4c0-19-15.55-34.534-34.533-34.534s-34.505 15.535-34.505 34.534z" fill="#9b8e99"/><path d="m259.621 340.516c0-4.822 3.952-8.778 8.799-8.778h44.746c4.818 0 8.77 3.956 8.77 8.778v16.401c0 4.851-3.952 8.807-8.77 8.807h-44.746c-4.847 0-8.799-3.956-8.799-8.807z" fill="#fef0ae"/><path d="m63.614 442.588h233.887 61.969v-40.915h-144.394-34.533-34.505-144.422v40.915z" fill="#ececec"/><path d="m297.501 442.588v34.13c0 7.305 5.972 13.282 13.271 13.282h35.457c7.27 0 13.242-5.977 13.242-13.282v-34.13l-30.985-18.385z" fill="#9b8e99"/><path d="m47.949 349.323h44.746c4.818 0 8.77-3.956 8.77-8.807v16.401c0 4.851-3.952 8.807-8.77 8.807h-44.746c-4.818 0-8.77-3.956-8.77-8.807v-16.401c-.001 4.851 3.952 8.807 8.77 8.807z" fill="#fee45a"/><path d="m268.42 349.323h44.746c4.818 0 8.77-3.956 8.77-8.807v16.401c0 4.851-3.952 8.807-8.77 8.807h-44.746c-4.847 0-8.799-3.956-8.799-8.807v-16.401c0 4.851 3.952 8.807 8.799 8.807z" fill="#fee45a"/><path d="m231.002 197.182 6.405 18.682h19.012c3.087 0 4.558 2.916 5.597 6.035l18.06 54.602c1.039 3.118-2.539 6.035-5.626 6.035h-16.156l30.148 26.247c6.232 7.941 8.309 15.073 8.943 22.955h15.781c4.818 0 8.77 3.956 8.77 8.778v13.86 2.541c0 4.851-3.952 8.807-8.77 8.807h-15.608l-.058 35.949h61.97l.087-51.57c0-16.545 1.558-27.835-9.145-41.406l-29.398-29.943-14.598-42.503-13.416-39.069c-2.568-7.45-13.098-16.834-27.725-16.834h-61.999c14.628 0 25.187 9.385 27.726 16.834z" fill="#fd4755"/><path d="m297.501 408.747v33.841h61.969v-40.915h-61.969v.144z" fill="#d7d0d6"/><path d="m1.616 460.779h33.408c8.078 0 8.511 2.743 8.511 9.991v19.23h6.809c7.299 0 13.271-5.977 13.271-13.282v-34.13h-61.999z" fill="#7b6f78"/><path d="m297.501 460.779h33.379c8.107 0 8.54 2.743 8.54 9.991v19.23h6.809c7.27 0 13.242-5.977 13.242-13.282v-34.13h-61.97z" fill="#7b6f78"/><path d="m258.294 282.536h16.156c3.087 0 6.664-2.916 5.626-6.035l-18.06-54.602c-1.039-3.118-2.51-6.035-5.597-6.035h-19.012z" fill="#01d0fb"/><path d="m5.972 269.282 34.101 9.471 5.943-17.267-40.044-11.145c-3.174-.867-5.972-2.686-5.972-5.977v18.942c0 3.291 2.798 5.11 5.972 5.976z" fill="#d7d0d6"/><path d="m355.143 269.282-34.129 9.471-5.943-17.267 40.073-11.146c3.173-.866 5.972-2.685 5.972-5.977v18.942c-.001 3.292-2.8 5.111-5.973 5.977z" fill="#d7d0d6"/><path d="m167.185 334.452c12.405 5.226 21.176 17.556 21.176 31.82v35.4h26.715v-35.4c0-19-15.55-34.534-34.533-34.534-4.731 0-9.232.953-13.358 2.714z" fill="#7b6f78"/><path d="m380.56 71.347v96.441c0 4.014 1.385 7.392 4.126 10.135s6.001 4.129 9.78 4.129 7.011-1.386 9.78-4.129c2.741-2.743 4.097-6.006 4.097-9.789v-27.979h20.916c12.694 0 22.878-3.811 30.552-11.405 7.645-7.623 11.482-17.585 11.482-29.943 0-12.474-4.068-22.609-12.175-30.405-8.136-7.767-18.637-11.665-31.562-11.665h-32.572c-4.01 0-7.414 1.415-10.213 4.216-2.798 2.8-4.211 6.265-4.211 10.394zm45.467 44.438h-13.559c-2.568 0-4.126.375-4.126-2.252v-29.972c0-1.935.894-1.935 3.491-1.935h14.338c4.703 0 8.626 1.704 11.771 5.082 3.145 3.349 4.703 7.45 4.703 12.272 0 4.562-1.644 8.518-4.962 11.839-3.318 3.32-7.213 4.966-11.656 4.966z" fill="#f0eef0"/><g fill="#d7d0d6"><path d="m428.335 81.77c3.75.433 6.953 2.079 9.607 4.938 3.145 3.349 4.703 7.45 4.703 12.272 0 4.562-1.644 8.518-4.962 11.839-2.193 2.166-4.616 3.638-7.299 4.389-.548 8.662-1.904 17.007-3.981 24.948h2.856c12.694 0 22.878-3.811 30.552-11.405 7.645-7.623 11.482-17.585 11.482-29.943 0-12.474-4.068-22.609-12.175-30.405-8.136-7.767-18.637-11.665-31.562-11.665h-6.693c3.289 7.823 5.828 16.197 7.472 25.032z"/><path d="m430.932 401.673v-186.213c-5.28.895-10.703 1.357-16.271 1.357v184.855h16.271z"/></g></g></svg>