<svg width="35" height="35" xmlns="http://www.w3.org/2000/svg">

 <g>
  <title>background</title>
  <rect fill="none" id="canvas_background" height="402" width="582" y="-1" x="-1"/>
 </g>
 <g>
  <title>Layer 1</title>
  <g id="svg_1">
   <path fill="#ffffff" stroke="null" transform="rotate(20.52373504638672 16.450351715087887,17.12009429931641) " id="svg_2" d="m23.49097,1.889158l-14.081238,0c-1.173136,0 -2.133302,0.925171 -2.133302,2.057482l0,26.34604c0,1.132311 0.960166,2.058352 2.133302,2.058352l14.081238,0c1.173136,0 2.133302,-0.9243 2.133302,-2.057482l0,-26.34691c0,-1.132311 -0.960166,-2.057482 -2.133302,-2.057482zm-9.293039,1.483058l4.504841,0c0.142581,0 0.25809,0.111403 0.25809,0.249787c0,0.137514 -0.115509,0.248917 -0.25809,0.248917l-4.504841,0c-0.142581,0 -0.25809,-0.111403 -0.25809,-0.248917c0,-0.138384 0.115509,-0.249787 0.25809,-0.249787zm2.25242,27.950075c-0.589275,0 -1.066651,-0.460409 -1.066651,-1.029611s0.477376,-1.028741 1.066651,-1.028741s1.066651,0.459539 1.066651,1.028741s-0.477376,1.029611 -1.066651,1.029611zm7.689453,-2.778993l-15.378906,0l0,-23.391238l15.378906,0l0,23.391238z"/>
  </g>
  <g id="svg_3"/>
  <g id="svg_4"/>
  <g id="svg_5"/>
  <g id="svg_6"/>
  <g id="svg_7"/>
  <g id="svg_8"/>
  <g id="svg_9"/>
  <g id="svg_10"/>
  <g id="svg_11"/>
  <g id="svg_12"/>
  <g id="svg_13"/>
  <g id="svg_14"/>
  <g id="svg_15"/>
  <g id="svg_16"/>
  <g id="svg_17"/>
 </g>
</svg>